<svg width="156" height="41" fill="none" xmlns="http://www.w3.org/2000/svg"><path d="m20.55 23.47-1.93 5.27a.63.63 0 0 0 0 .46l3.31 9.07 3.83-2.2-4.6-12.6a.33.33 0 0 0-.61 0ZM24.4 14.6a.33.33 0 0 0-.62 0l-1.92 5.27a.63.63 0 0 0 0 .45l5.42 14.87 3.83-2.21-6.7-18.38Z" fill="#fff"/><path d="M17.6 3.05c.1 0 .19.03.27.07l14.6 8.43c.17.1.27.28.27.47v16.85c0 .2-.1.38-.27.47l-14.6 8.44a.56.56 0 0 1-.55 0L2.74 29.35a.54.54 0 0 1-.28-.47V12.02c0-.2.1-.37.28-.47l14.6-8.43a.53.53 0 0 1 .26-.07Zm0-2.46a3 3 0 0 0-1.5.4L1.5 9.43a3.01 3.01 0 0 0-1.5 2.6v16.85c0 1.07.58 2.07 1.5 2.61l14.6 8.43a3 3 0 0 0 3 0l14.6-8.43a3 3 0 0 0 1.5-2.6V12.01c0-1.07-.58-2.07-1.5-2.6L19.1 1c-.47-.27-1-.41-1.51-.41Z" fill="#fff"/><path d="m7.96 35.2 1.34-3.67 2.7 2.24-2.53 2.3-1.51-.87Z" fill="#000"/><path d="M16.37 10.82h-3.7a.65.65 0 0 0-.61.43L4.13 32.99l3.82 2.21 8.74-23.94a.33.33 0 0 0-.32-.44ZM22.85 10.82h-3.7a.65.65 0 0 0-.62.43L9.47 36.08l3.83 2.2 9.86-27.01a.33.33 0 0 0-.31-.45ZM50.95 15.34c.37 0 .68.08.93.23.26.15.5.45.75.89l4.83 8.75c.05.1.06.18.03.25-.02.06-.1.1-.21.1h-1.85c-.17 0-.28-.07-.34-.2l-1.03-1.87h-6.85l-1 1.88c-.07.13-.18.19-.34.19h-1.9c-.12 0-.2-.04-.22-.1-.02-.07-.01-.15.03-.25l4.79-8.75c.24-.44.48-.74.71-.89.24-.15.5-.23.82-.23h.85Zm-2.84 6.45h5.03l-2.32-4.28c-.04-.06-.09-.1-.16-.1h-.1c-.06 0-.11.03-.15.1l-2.3 4.28ZM68.06 15.34c1.12 0 1.92.25 2.4.76.5.5.74 1.25.74 2.24v.83c0 .84-.17 1.5-.51 1.98-.34.49-.9.8-1.67.94l2.5 3.08c.04.05.06.13.04.22-.02.1-.1.15-.24.15h-1.88a.6.6 0 0 1-.26-.04.62.62 0 0 1-.14-.15l-2.31-3.03h-4.71v2.9c0 .21-.1.32-.32.32h-1.58c-.22 0-.33-.1-.33-.32v-9.44c0-.3.15-.44.44-.44h7.83Zm-6.03 5.21h5.58c.5 0 .84-.1 1.05-.32.2-.2.3-.53.3-.97v-.61c0-.44-.1-.76-.3-.98-.2-.2-.56-.31-1.05-.31h-5.4c-.13 0-.18.05-.18.18v3.01ZM83.4 15.34c1 0 1.7.2 2.13.6.42.4.64 1 .64 1.8v.7c0 .82-.31 1.44-.94 1.86.67.39 1 1.01 1 1.88v.84c0 .4-.03.74-.12 1.05-.1.3-.23.58-.43.8-.2.21-.47.39-.8.5a3.8 3.8 0 0 1-1.23.18H75c-.29 0-.44-.15-.44-.44v-9.33c0-.3.15-.44.44-.44h8.4Zm-6.61 4.24h5.98c.49 0 .81-.07.99-.22.18-.14.26-.35.26-.64v-.5c0-.3-.08-.51-.25-.66-.17-.14-.45-.21-.82-.21h-5.97c-.13 0-.18.06-.18.19v2.04h-.01Zm0 1.6v2.17c0 .13.06.18.19.18h5.98c.39 0 .66-.07.82-.2.17-.15.26-.37.26-.68v-.56c0-.3-.1-.52-.27-.68-.18-.15-.51-.23-1-.23h-5.98ZM91.67 15.34c.21 0 .32.1.32.32v9.56c0 .21-.1.32-.32.32H90.1c-.23 0-.34-.1-.34-.32v-9.55c0-.21.12-.32.34-.32h1.57ZM106.95 15.34c.23 0 .33.1.33.32v1.43c0 .23-.11.33-.33.33h-4.58v7.8c0 .21-.1.32-.31.32h-1.6c-.2 0-.31-.1-.31-.32v-7.8h-4.58c-.22 0-.33-.11-.33-.33v-1.43c0-.21.11-.32.33-.32h11.38ZM118.48 15.34c1.12 0 1.91.25 2.4.76.49.5.73 1.25.73 2.24v.83c0 .84-.17 1.5-.5 1.98-.35.49-.9.8-1.67.94l2.49 3.08c.05.05.06.13.04.22-.02.1-.1.15-.24.15h-1.87a.6.6 0 0 1-.26-.04.62.62 0 0 1-.15-.15l-2.3-3.03h-4.72v2.9c0 .21-.1.32-.32.32h-1.57c-.23 0-.34-.1-.34-.32v-9.44c0-.3.15-.44.44-.44h7.84Zm-6.03 5.21h5.58c.5 0 .84-.1 1.05-.32.2-.2.3-.53.3-.97v-.61c0-.44-.1-.76-.3-.98-.2-.2-.55-.31-1.05-.31h-5.4c-.13 0-.18.05-.18.18v3.01ZM126.68 15.34c.2 0 .31.1.31.32v5.82c0 .39.04.71.1.96.07.26.17.47.32.61.14.16.34.26.6.32.24.07.55.1.93.1h4.04c.38 0 .7-.03.94-.1.26-.06.45-.17.6-.32.14-.15.25-.35.3-.6.06-.27.1-.58.1-.97v-5.82c0-.21.1-.32.31-.32h1.6c.2 0 .31.1.31.32v6.04c0 .7-.07 1.29-.22 1.78-.14.5-.38.89-.7 1.2-.33.3-.75.53-1.27.66-.52.14-1.15.2-1.89.2h-4.2c-.74 0-1.36-.06-1.88-.2a2.88 2.88 0 0 1-1.25-.66c-.33-.31-.56-.7-.72-1.2a6 6 0 0 1-.23-1.78v-6.04c0-.21.12-.32.34-.32h1.56ZM143.4 15.34c.22 0 .4.02.56.04.15.04.29.08.4.17.12.09.22.2.32.34.09.14.19.32.28.56l3.03 7c.05.08.11.12.2.12h.19a.2.2 0 0 0 .2-.13l3.03-7c.1-.23.2-.41.28-.55a1.13 1.13 0 0 1 .72-.5c.15-.04.33-.05.54-.05h1.56c.5 0 .85.12 1.03.34.18.23.26.62.26 1.17v8.37c0 .21-.12.32-.34.32h-1.48c-.21 0-.32-.1-.32-.32v-7.61c0-.1-.04-.15-.11-.15h-.13c-.1 0-.16.04-.19.12l-2.94 6.53a4.1 4.1 0 0 1-.36.67c-.12.17-.25.32-.39.44s-.3.2-.48.25c-.18.05-.39.08-.63.08h-.7c-.24 0-.46-.03-.63-.08a1.18 1.18 0 0 1-.48-.25 1.94 1.94 0 0 1-.4-.44c-.11-.18-.24-.4-.35-.67l-2.94-6.53c-.03-.08-.1-.12-.19-.12h-.13c-.08 0-.11.05-.11.15v7.61c0 .21-.1.32-.32.32h-1.49c-.22 0-.33-.1-.33-.32v-8.37c0-.55.09-.94.26-1.17.18-.22.52-.34 1.03-.34h1.55Z" fill="#fff"/></svg>