<svg width="157" height="33" fill="none" xmlns="http://www.w3.org/2000/svg"><path d="M42.47 10.96h1.7l4.78 11.08H46.7l-1.03-2.54h-4.8l-1 2.54h-2.22l4.83-11.08Zm2.5 6.85-1.7-4.5-1.74 4.5h3.44ZM51.07 10.96h2.27l3.02 8.37 3.12-8.37h2.13l-4.48 11.08h-1.7l-4.36-11.08ZM68.66 10.96h1.7l4.78 11.08h-2.26l-1.03-2.54h-4.8l-1.01 2.54h-2.2l4.82-11.08Zm2.5 6.85-1.7-4.5-1.74 4.5h3.44ZM79.5 10.96h1.98v9.3h4.7v1.78H79.5V10.96ZM94.34 10.96h1.7l4.79 11.08h-2.26l-1.03-2.54h-4.81l-1 2.54h-2.21l4.82-11.08Zm2.5 6.85-1.7-4.5-1.74 4.5h3.45ZM105.19 10.96h2.61l5.38 8.23h.02v-8.23h1.98v11.08h-2.51l-5.48-8.5h-.03v8.5h-1.97V10.96ZM128.4 13.56c-.41-.44-.8-.74-1.2-.88a3.1 3.1 0 0 0-1.13-.22 3.79 3.79 0 0 0-2.76 1.16c-.34.35-.6.77-.78 1.25a4.87 4.87 0 0 0 0 3.19 3.63 3.63 0 0 0 3.54 2.47c.44 0 .88-.1 1.3-.3.42-.23.82-.57 1.18-1.04l1.63 1.16a4.45 4.45 0 0 1-1.83 1.5c-.72.32-1.5.48-2.3.48-.86 0-1.65-.14-2.37-.41a5.63 5.63 0 0 1-1.85-1.18 5.48 5.48 0 0 1-1.2-1.83 6.2 6.2 0 0 1-.44-2.37c0-.89.15-1.69.44-2.4.29-.74.7-1.36 1.2-1.87.52-.51 1.14-.9 1.85-1.18.72-.28 1.51-.42 2.37-.42.75 0 1.44.14 2.08.4.65.27 1.25.72 1.8 1.35l-1.53 1.14ZM134.63 10.96h1.98v4.4h5.18v-4.4h1.97v11.08h-1.97v-4.89h-5.18v4.89h-1.98V10.96ZM149.38 10.96h7.34v1.78h-5.37v2.72h5.08v1.79h-5.08v3H157v1.79h-7.63V10.96Z" fill="#fff"/><path fill-rule="evenodd" clip-rule="evenodd" d="M31.8 16.5a15.9 15.9 0 1 1-31.8 0 15.9 15.9 0 0 1 31.8 0Zm-20.4 6.33H8.3c-.64 0-.96 0-1.16-.13a.78.78 0 0 1-.35-.61c-.01-.23.15-.51.47-1.08l7.62-13.43c.32-.57.48-.85.69-.96a.8.8 0 0 1 .71 0c.2.1.37.39.7.96l1.56 2.74.01.01c.35.61.53.93.6 1.25.09.35.09.73 0 1.09-.07.33-.25.63-.6 1.26l-4 7.07-.01.02c-.36.62-.53.93-.78 1.17-.27.25-.6.45-.95.55-.32.09-.69.09-1.42.09Zm7.79 0h4.42c.65 0 .98 0 1.18-.13a.78.78 0 0 0 .35-.62c0-.22-.15-.5-.45-1.02a.33.33 0 0 0-.04-.06l-2.21-3.79-.03-.04c-.3-.53-.47-.8-.67-.9a.78.78 0 0 0-.7 0c-.2.1-.37.39-.7.95L18.14 21l-.02.01c-.32.56-.48.84-.47 1.07a.8.8 0 0 0 .36.62c.2.12.53.12 1.18.12Z" fill="#fff"/></svg>