<svg width="155" height="43" fill="none" xmlns="http://www.w3.org/2000/svg"><path d="M43.25 5.97h7.13c1.81 0 3.14.49 4 1.32.83.72 1.2 1.7 1.2 2.65 0 .37 0 .84-.11 1.21-.24.6-.6 1.2-1.1 1.7-.23.23-.48.37-.71.48.83.24 1.57.72 2.18 1.33.48.6.72 1.32.72 2.41 0 .6-.12 1.33-.37 1.82-.24.48-.72.97-1.21 1.32-.6.37-1.2.6-1.81.84-.72.23-1.58.23-2.42.23h-7.38V5.93h-.12v.04Zm6.53 6.27c.6 0 1.2-.12 1.81-.37.49-.23.72-.72.72-1.2 0-.5-.23-.98-.6-1.21a2.1 2.1 0 0 0-1.7-.37h-3.39v3.25h3.14v-.1h.02Zm.84 6.18c.6 0 1.2-.12 1.8-.37.5-.24.73-.72.61-1.33 0-.48-.23-.97-.6-1.2a3.85 3.85 0 0 0-1.93-.5h-4v3.4h4.12ZM60.77 5.97h3.39v15.47h-3.4V5.97ZM69.36 5.97h3.13l7.25 9.55V5.96h3.37v15.47h-2.88l-7.62-9.8v9.8h-3.25V5.97ZM93.4 5.85h3.14l6.64 15.59h-3.5l-1.45-3.51H91.7l-1.44 3.5h-3.5L93.4 5.86Zm3.62 9.18-2.04-5.07-2.05 5.07h4.1ZM106.8 5.97h3.14l7.24 9.55V5.96h3.4v15.47h-2.91l-7.5-9.8v9.8h-3.37V5.97ZM132.89 21.67c-1.1 0-2.18-.23-3.14-.6a8.01 8.01 0 0 1-4.22-4.23 8.9 8.9 0 0 1-.6-3.14 8.4 8.4 0 0 1 2.3-5.67 7.76 7.76 0 0 1 5.79-2.3c.6 0 1.31 0 1.92.12.6.12 1.09.24 1.57.49.5.23.98.49 1.33.72.37.23.84.6 1.2.97L137 10.57c-.6-.5-1.2-.98-1.81-1.33a4.63 4.63 0 0 0-3.86-.12c-.6.24-1.09.6-1.44 1.1-.35.48-.72.97-.97 1.57a5.01 5.01 0 0 0 .97 5.32 4.25 4.25 0 0 0 3.25 1.44c.72 0 1.58-.11 2.3-.48.6-.37 1.33-.84 1.81-1.33l2.17 2.16-1.21 1.21c-.49.37-.97.6-1.44.84-.49.23-1.1.49-1.7.6-.85.12-1.58.12-2.18.12ZM143.3 5.97h11.58v3.02h-8.34v3.14h7.37v3.01h-7.37v3.28H155v3.02h-11.7V5.97ZM47.6 36.65c-.84 0-1.7-.11-2.42-.48A7.12 7.12 0 0 1 43 34.84l1.2-1.32c.5.48.98.72 1.58 1.09.6.23 1.21.37 1.81.37a3 3 0 0 0 1.45-.37c.37-.24.48-.6.48-.98 0-.11 0-.37-.11-.48-.12-.12-.24-.37-.37-.5-.24-.1-.5-.23-.73-.36-.37-.12-.83-.24-1.2-.37-.49-.12-1.1-.24-1.58-.49a3.29 3.29 0 0 1-1.1-.6c-.23-.24-.48-.49-.71-.84-.24-.49-.24-.97-.24-1.33 0-.48.12-.83.24-1.32.11-.37.48-.72.72-.97.37-.24.72-.5 1.2-.6.5-.12.98-.24 1.45-.24.72 0 1.44.12 2.18.37.6.23 1.2.6 1.81.97l-.97 1.44c-.49-.37-.98-.6-1.44-.83-.5-.24-.98-.24-1.45-.24-.48 0-.97.12-1.32.37-.23.24-.49.6-.49.98 0 .23 0 .37.12.6.12.12.23.37.37.49.23.11.49.23.84.37.37.12.72.23 1.32.37.49.12.98.23 1.58.49.37.11.72.37 1.09.6.23.23.49.6.6.84.12.37.24.72.24 1.2 0 .5-.12.98-.24 1.33a6.8 6.8 0 0 1-.83 1.1c-.37.22-.72.48-1.21.6-.6-.04-1.2.07-1.7.07ZM53.63 25.67h2.07l3.25 5.06 3.4-5.06h2.04v10.87h-1.93v-7.85l-3.4 5.06h-.1l-3.38-5.06v7.85h-1.95V25.67ZM70.92 25.55h1.8l4.72 10.87H75.4l-1.1-2.65h-5.06l-1.1 2.65h-1.92l4.7-10.87Zm2.78 6.64-1.93-4.34-1.8 4.34h3.73ZM79.37 25.67h4.83c.6 0 1.21.11 1.81.23.5.12.98.49 1.33.84.23.23.49.6.72 1.09.12.37.23.84.23 1.32 0 .37-.11.84-.23 1.21-.12.37-.37.6-.49.98-.23.23-.48.48-.83.72-.38.23-.73.37-1.1.48l2.9 4.11h-2.3l-2.64-3.74h-2.42v3.74h-1.93l.12-10.98Zm4.72 5.31c.6 0 1.2-.11 1.57-.48.37-.37.6-.84.6-1.33 0-.48-.23-.97-.6-1.32a2.74 2.74 0 0 0-1.7-.49h-2.78v3.62h2.9ZM93.26 27.36h-3.5v-1.7h8.82v1.7h-3.5v9.18h-1.94l.12-9.18ZM110.3 36.65c-.71 0-1.44-.11-2.17-.48a5.3 5.3 0 0 1-2.9-2.9c-.24-.73-.5-1.45-.38-2.19 0-.72.12-1.44.37-2.18a5.5 5.5 0 0 1 2.9-3.02c.73-.24 1.45-.49 2.3-.49.5 0 .98 0 1.33.12.37.12.72.23 1.09.37.37.12.6.37.97.49.24.23.6.48.84.72l-1.2 1.44a4 4 0 0 0-3.02-1.34c-.5 0-.98.11-1.45.23-.48.23-.84.48-1.2.84-.38.37-.61.72-.73 1.2-.11.49-.23.98-.23 1.45 0 .48.12.97.23 1.44.12.46.37.83.72 1.2.37.37.73.6 1.21.84.49.24.98.37 1.44.24.6 0 1.21-.12 1.7-.37.49-.24.97-.6 1.44-1.1l1.2 1.21-.83.84c-.37.23-.6.49-.97.6-.37.12-.72.37-1.21.37-.49.47-.98.47-1.44.47ZM116.7 25.67h1.8v4.46h5.21v-4.46h1.93v10.87h-1.93v-4.6h-5.2v4.6h-1.81V25.67ZM132.28 25.55h1.81l4.72 10.87h-2.05l-1.09-2.65h-5.06l-1.1 2.65h-1.92l4.7-10.87Zm2.67 6.64-1.81-4.34-1.81 4.34h3.62ZM140.74 25.67h1.95v10.87h-1.95V25.67ZM145.57 25.67h1.7l5.8 7.48v-7.48H155v10.87h-1.58l-5.9-7.74v7.74h-1.95V25.67ZM22 35.82v4.71l-4.12 2.42-3.99-2.42v-4.71l4 2.41 4.1-2.41ZM0 19.5l4 2.41v8.09l6.87 4.11v4.72L0 32.43V19.5Zm35.77 0v12.93l-10.99 6.41v-4.71l6.88-4.11v-8.09l4.1-2.43Zm-11-6.41 4.1 2.41v4.72L22 24.34v8.2l-4 2.42-3.97-2.42v-8.22L6.9 20.21V15.5l4.1-2.42 6.88 4.11 6.88-4.1ZM6.9 23.6l3.99 2.42v4.71l-4-2.42V23.6Zm21.97 0v4.71l-4 2.42v-4.71l4-2.42ZM4 8.99 8.1 11.4 4 13.82v4.71l-4-2.41V11.4L4 9Zm27.79 0 4.1 2.41v4.72l-4.1 2.41v-4.71l-4-2.42 4-2.41Zm-13.9 0L22 11.4l-4.12 2.42-3.99-2.42 4-2.41Zm0-8.09 11 6.41-4 2.42L18 5.62 11 9.72l-4-2.4L17.9.9Z" fill="#fff"/></svg>