<svg width="156" height="29" fill="none" xmlns="http://www.w3.org/2000/svg"><path fill-rule="evenodd" clip-rule="evenodd" d="m17.29 20.5-2.12-2.18a11.8 11.8 0 0 1-2.45 1.8c-.94.47-1.97.7-3 .68a6.08 6.08 0 0 1-5.79-4.16 7.8 7.8 0 0 1 0-5.3c.31-.77.75-1.5 1.3-2.14a6.06 6.06 0 0 1 4.49-2c1-.02 2.01.22 2.9.68.87.47 1.67 1.03 2.4 1.7l2.14-2.47a9.4 9.4 0 0 0-5.04-2.74c-.77-.16-1.58-.24-2.38-.21a9.81 9.81 0 0 0-7.05 2.9A9.8 9.8 0 0 0 0 14a9.99 9.99 0 0 0 2.74 6.98c.88.87 1.91 1.6 3.05 2.09 1.21.51 2.53.77 3.85.77.83 0 1.63-.08 2.43-.23a8.6 8.6 0 0 0 1.99-.67c.6-.31 1.19-.65 1.73-1.06.5-.4 1-.88 1.5-1.4ZM60.26 9.56c0-.64.31-1.24.8-1.63a3.5 3.5 0 0 1 2.28-.64c.88 0 1.73.18 2.55.51.9.4 1.79.88 2.56 1.45l1.79-2.53a11.25 11.25 0 0 0-3.1-1.78 10.15 10.15 0 0 0-6.31-.24 5.37 5.37 0 0 0-3.33 2.9c-.34.7-.52 1.47-.5 2.27a4.54 4.54 0 0 0 1.63 3.82c.6.47 1.27.83 1.97 1.1.88.3 1.78.56 2.68.77.73.18 1.45.38 2.15.62.46.15.88.36 1.3.64.28.18.5.44.64.75.13.29.18.6.18.93a2 2 0 0 1-.9 1.76c-.73.46-1.58.7-2.43.67-1.09.03-2.2-.2-3.2-.64-1.02-.5-1.95-1.09-2.77-1.84l-2.02 2.38a11.32 11.32 0 0 0 10.6 2.66 6.4 6.4 0 0 0 2.11-1.11c.6-.5 1.06-1.09 1.37-1.78a6 6 0 0 0 .1-4.53 4.24 4.24 0 0 0-1.13-1.55 6.25 6.25 0 0 0-1.91-1.13 22.4 22.4 0 0 0-2.64-.86c-.9-.2-1.65-.44-2.22-.62-.5-.15-.93-.36-1.37-.64a1.84 1.84 0 0 1-.88-1.7ZM97.16 9.82v13.6h3.28V4.46H96.9l-5.73 8.97-5.74-8.97h-3.54v18.94h3.28V9.87l5.92 8.89h.1l5.97-8.94ZM128.1 14.06c0 .9-.16 1.78-.47 2.63a6.16 6.16 0 0 1-5.9 4.1 6.35 6.35 0 0 1-4.62-2 7.41 7.41 0 0 1-.02-9.59 6.35 6.35 0 0 1 9.2.05 6.96 6.96 0 0 1 1.8 4.8Zm3.48-.08c0-1.32-.23-2.61-.72-3.82a9.56 9.56 0 0 0-9.13-6.03 9.92 9.92 0 0 0-7.15 2.95c-.9.9-1.6 1.96-2.07 3.15a10.23 10.23 0 0 0 0 7.63 9.47 9.47 0 0 0 5.12 5.25c1.26.53 2.63.8 4 .77a9.73 9.73 0 0 0 7.13-2.95c.9-.9 1.6-1.96 2.07-3.15.52-1.19.75-2.48.75-3.8ZM145.4 9.56c0-.64.31-1.24.8-1.63a3.5 3.5 0 0 1 2.28-.64c.88 0 1.73.18 2.56.51.9.4 1.78.88 2.56 1.45l1.78-2.53a11.96 11.96 0 0 0-3.1-1.78 10.15 10.15 0 0 0-6.3-.24 5.37 5.37 0 0 0-3.34 2.9c-.34.7-.52 1.47-.5 2.27-.02.78.14 1.55.42 2.25.29.62.7 1.14 1.22 1.58.6.46 1.26.82 1.96 1.08.88.31 1.78.57 2.69.78.72.18 1.45.38 2.14.62.47.15.88.36 1.3.64.28.18.51.44.64.75.13.29.18.6.18.93a2 2 0 0 1-.9 1.76c-.73.46-1.58.7-2.43.67-1.09.03-2.2-.2-3.18-.64-1-.5-1.94-1.09-2.77-1.84l-1.98 2.4a11.32 11.32 0 0 0 10.59 2.66c.78-.23 1.5-.62 2.12-1.1.6-.5 1.06-1.1 1.37-1.79a6.1 6.1 0 0 0 .1-4.52 4.23 4.23 0 0 0-1.14-1.55 6.24 6.24 0 0 0-1.9-1.14 22.4 22.4 0 0 0-2.64-.85c-.9-.2-1.66-.44-2.22-.62-.5-.16-.94-.39-1.38-.67a1.83 1.83 0 0 1-.7-.78c-.17-.28-.22-.6-.22-.93ZM39.87 8.27l-9.01 9.04c-.13-.23-.24-.46-.34-.7a7.63 7.63 0 0 1 0-5.24c.31-.8.75-1.52 1.32-2.14a6.06 6.06 0 0 1 4.57-2 6.44 6.44 0 0 1 3.46 1.04Zm-.8 11.96a6.35 6.35 0 0 1-6-.46l9-9.05a7.63 7.63 0 0 1 .31 5.94c-.28.8-.72 1.53-1.3 2.15a5.83 5.83 0 0 1-2 1.42Zm1.37 2.85a10.5 10.5 0 0 0 3.16-2.15c.87-.9 1.57-1.96 2.06-3.13a10.16 10.16 0 0 0-1.06-9.56l5.87-5.89L48.14 0l-5.89 5.92a10.15 10.15 0 0 0-5.74-1.7 9.88 9.88 0 0 0-9.17 6.04 9.97 9.97 0 0 0 1.09 9.56l-5.9 5.87 2.33 2.35 5.9-5.92a10.15 10.15 0 0 0 5.71 1.7 9.64 9.64 0 0 0 3.97-.74Z" fill="#fff"/></svg>