<svg width="156" height="48" fill="none" xmlns="http://www.w3.org/2000/svg"><path d="M9.97 4.74a21.29 21.29 0 0 1 26.77.05c0 .14-.1.19-.19.27-1.57 1.6-3.17 3.17-4.74 4.77a.39.39 0 0 1-.32.19c-.05 0-.13 0-.18-.03a14.77 14.77 0 0 0-15.69-.24c-.14.08-.27.16-.4.26L9.97 4.74ZM36.69 15.31c1.73-1.75 3.46-3.54 5.2-5.32 6.86 8.5 5.64 20.3 0 27.06-1.74-1.76-3.44-3.51-5.2-5.27 3.22-5.44 3.27-10.95 0-16.47ZM36.66 42.49a21.31 21.31 0 0 1-26.8 0l5.2-5.25c5.46 3.4 10.92 3.36 16.36.03 1.75 1.7 3.51 3.46 5.24 5.22ZM9.81 15.29c-3.25 5.51-3.25 11.03 0 16.54l-5.2 5.22c-5.99-7.24-6.3-19.15 0-26.98l5.2 5.22ZM156 35.03h-2.48c-.16-.9-.02-1.81-.18-2.77-.22.18-.38.4-.53.64a6.65 6.65 0 0 1-4.53 2.4c-1.42.18-2.85 0-4.16-.51a7.6 7.6 0 0 1-3.28-2.35 7.3 7.3 0 0 1-1.57-3.7c-.32-1.65-.21-3.35.27-4.98a7.3 7.3 0 0 1 6.15-5.33 8.02 8.02 0 0 1 4.93.62 6.4 6.4 0 0 1 2.21 1.73c.19.24.35.48.48.77v-9.78h2.7v23.26Zm-8.52-2.3a5.6 5.6 0 0 0 5.7-5.22 5.82 5.82 0 0 0-2.8-5.85 5.99 5.99 0 0 0-4.93-.4 5.1 5.1 0 0 0-3.33 3.46 7.26 7.26 0 0 0-.02 4.13 5.27 5.27 0 0 0 2.02 2.88 5.22 5.22 0 0 0 3.36 1ZM74.7 27.94H60.98a5 5 0 0 0 3.3 4.4c.91.37 1.9.53 2.88.48a7.7 7.7 0 0 0 3.94-1.28c.32-.21.62-.48.86-.8.6.56 1.2 1.1 1.8 1.68-.37.48-.8.88-1.27 1.2a9.86 9.86 0 0 1-5.57 1.75 8.8 8.8 0 0 1-3.4-.53 7.89 7.89 0 0 1-3.55-2.48 7.61 7.61 0 0 1-1.65-4 9.04 9.04 0 0 1 .56-5.16 7.7 7.7 0 0 1 2.55-3.33 8.1 8.1 0 0 1 3.92-1.54 9.88 9.88 0 0 1 4.05.29 6.95 6.95 0 0 1 5.17 5.7c.29 1.23.32 2.42.13 3.62Zm-2.58-2.37c0-.18.02-.32 0-.48a4.56 4.56 0 0 0-2.96-3.91 7.13 7.13 0 0 0-2.8-.4A5.47 5.47 0 0 0 62 23.04a5.15 5.15 0 0 0-.96 2.48c3.68.05 7.36.05 11.09.05ZM107.86 35.37a8.33 8.33 0 0 1-6.1-2.42A8.07 8.07 0 0 1 99.5 28a9.14 9.14 0 0 1 .88-5.25 7.76 7.76 0 0 1 6.26-4.4 8.67 8.67 0 0 1 4.58.54 7.7 7.7 0 0 1 4.93 6.4c.29 1.53.16 3.13-.35 4.6a7.8 7.8 0 0 1-6.31 5.32c-.54.14-1.1.16-1.63.16Zm5.73-8.5c.03-.74-.1-1.48-.35-2.2-.32-.91-.82-1.7-1.54-2.37a5.37 5.37 0 0 0-2.48-1.34 5.63 5.63 0 0 0-5.3 1.36 6.64 6.64 0 0 0-1.3 7.06c1.46 3.6 5.78 4.18 8.39 2.48a5.77 5.77 0 0 0 2.58-4.98ZM135.35 35.05h-2.6a.9.9 0 0 1-.06-.53v-8.58c0-.63-.1-1.3-.3-1.91a4.13 4.13 0 0 0-3.16-2.9 4.85 4.85 0 0 0-4.96 1.36 4.97 4.97 0 0 0-1.4 3.56c-.04 2.82 0 5.62 0 8.45.02.18 0 .37-.04.55h-2.63v-16.4h2.47c.06.82.08 1.62.14 2.4.13.02.16-.09.21-.14a6.72 6.72 0 0 1 6.26-2.45 6.5 6.5 0 0 1 4.63 2.53 7.33 7.33 0 0 1 1.47 4c.03.45.05.87.05 1.3v8.2a2 2 0 0 1-.08.56ZM86.48 18.67H89c.05.72.13 1.47.21 2.27a5.26 5.26 0 0 1 4.77-2.59 6.22 6.22 0 0 1 3.97 1.23l-1.2 2.29a.73.73 0 0 1-.5-.21 4.85 4.85 0 0 0-6.34 1.5c-.54.81-.8 1.77-.78 2.76v8.58c.03.18 0 .37-.05.56h-2.64V18.67h.03ZM81.36 35.05H78.7v-23.2h2.66v23.2ZM45.8 42.49a3.8 3.8 0 0 1-.64 2.05c-.4.61-.99 1.06-1.68 1.33a3.63 3.63 0 0 1-4-.85 3.72 3.72 0 0 1-.74-4.02c.3-.67.77-1.26 1.36-1.66a3.72 3.72 0 0 1 5.46 1.7c.16.49.26.97.24 1.45ZM4.59 46.19a3.56 3.56 0 0 1-2.08-.59 3.74 3.74 0 0 1-.64-5.73 3.75 3.75 0 0 1 5.75.56 3.8 3.8 0 0 1-.42 4.7c-.35.34-.75.6-1.17.8-.48.15-.96.23-1.44.26ZM45.8 4.55c.02.48-.06.96-.24 1.44a3.71 3.71 0 0 1-3.38 2.34c-.49 0-.97-.07-1.42-.29a3.64 3.64 0 0 1-1.2-.8 3.3 3.3 0 0 1-.77-1.22 3.23 3.23 0 0 1-.24-1.41c-.03-.48.05-.96.24-1.44.16-.45.43-.88.77-1.23A3.71 3.71 0 0 1 42.17.82c.48 0 .96.08 1.41.3.46.18.86.45 1.2.8.35.34.62.77.78 1.22.18.43.26.9.24 1.41ZM8.21 4.53c0 .72-.21 1.44-.64 2.02-.4.62-.98 1.07-1.65 1.33a3.57 3.57 0 0 1-4-.8A3.66 3.66 0 0 1 4.5.8a3.7 3.7 0 0 1 2.62 1.07 3.69 3.69 0 0 1 1.1 2.66ZM19.38 18.7c0 .24-.11.48-.3.66-.18.16-.42.27-.66.27-.24 0-.48-.1-.67-.27a.92.92 0 0 1-.27-.66c.03-.24.14-.48.3-.64a.9.9 0 0 1 .66-.24c.24 0 .48.08.67.27.16.13.27.37.27.6ZM11.14 10.36c.14 0 .24.03.35.05.1.06.21.11.3.19.07.08.15.19.2.3a.82.82 0 0 1-.2.98.9.9 0 0 1-.67.24c-.14 0-.24 0-.38-.05-.1-.06-.21-.11-.32-.2a1.18 1.18 0 0 1-.2-.28.85.85 0 0 1-.09-.38c0-.13.03-.24.08-.37.05-.1.13-.21.21-.3a.78.78 0 0 1 .32-.18h.4ZM18.44 29.38c-.24 0-.48-.1-.66-.27a.85.85 0 0 1-.3-.63c0-.24.11-.48.3-.67.18-.16.42-.27.66-.27.14 0 .24.03.35.06.1.05.21.1.3.18.07.08.15.19.2.3a.74.74 0 0 1 0 .7c-.05.1-.1.2-.2.28a.64.64 0 0 1-.33.19c-.08.13-.18.13-.32.13ZM10.16 35.88c.02-.24.13-.48.3-.64.18-.16.4-.27.63-.27.13 0 .24.03.37.06.11.05.22.1.32.18.08.08.16.2.22.3a.85.85 0 0 1 0 .72c-.06.1-.14.21-.22.29a.64.64 0 0 1-.32.19c-.1.05-.24.05-.37.05a.93.93 0 0 1-.64-.27.76.76 0 0 1-.3-.61ZM25.77 26.9a.96.96 0 0 1-.93-.9c0-.14.02-.24.07-.35.06-.1.14-.21.22-.3.1-.07.21-.13.32-.18.1-.03.24-.05.37-.05s.24.02.35.05c.1.05.2.1.29.21a.7.7 0 0 1 .19.3c.05.1.05.24.05.34a1.1 1.1 0 0 1-.3.64.9.9 0 0 1-.63.24ZM38.05 37.45c.16.03.34.1.48.22.13.1.24.26.26.42.06.16.06.35 0 .5a.9.9 0 0 1-.26.43c-.14.11-.3.19-.48.22a.85.85 0 0 1-.5-.08.79.79 0 0 1-.38-.35 1.1 1.1 0 0 1-.13-.5c0-.14.05-.25.1-.35.05-.1.13-.22.24-.3.1-.07.21-.13.32-.18.1-.05.24-.03.35-.03ZM30.64 17.13c-.13 0-.24-.03-.37-.06-.1-.05-.21-.1-.32-.18a1.18 1.18 0 0 1-.21-.3c-.06-.1-.08-.24-.06-.37 0-.13.03-.24.08-.35.06-.1.14-.2.22-.29.08-.08.2-.13.32-.18.1-.03.23-.06.37-.03.13 0 .24.03.34.05.11.05.22.1.3.19.08.08.16.18.21.3.05.1.08.23.05.34 0 .13-.02.24-.08.34-.05.11-.13.22-.2.3a.92.92 0 0 1-.33.18c-.05.06-.19.06-.32.06ZM37.96 7.91c.24 0 .48.08.67.24.19.16.3.4.32.64 0 .13-.03.24-.08.37-.05.11-.13.22-.21.3a.64.64 0 0 1-.32.18c-.1.06-.24.06-.38.06a.92.92 0 0 1-.66-.27.85.85 0 0 1-.3-.64c0-.13.03-.24.09-.35.05-.1.1-.2.2-.29a.69.69 0 0 1 .3-.19c.14-.02.27-.05.37-.05ZM36.5 11.27c0 .18-.05.34-.13.5a1 1 0 0 1-.4.35.83.83 0 0 1-.5.05.69.69 0 0 1-.46-.24.84.84 0 0 1-.24-.45.81.81 0 0 1 .05-.5c.05-.17.19-.3.32-.4a.87.87 0 0 1 1.15.1c.1.1.2.35.2.59ZM33.04 14.65a.98.98 0 0 1-.64-.27.93.93 0 0 1-.27-.63c0-.24.08-.48.27-.64.16-.16.4-.27.64-.27s.45.1.64.27c.16.16.26.4.26.64s-.08.47-.26.63a.93.93 0 0 1-.64.27ZM29.17 18.67c0 .1 0 .24-.05.35-.05.1-.1.21-.19.3-.07.07-.18.15-.29.2a.74.74 0 0 1-.34.08c-.14 0-.24-.02-.35-.05-.1-.05-.21-.1-.3-.19a1.18 1.18 0 0 1-.2-.29.82.82 0 0 1-.09-.34c0-.24.11-.46.27-.64.16-.16.4-.27.61-.3.24 0 .46.11.64.27.19.16.3.37.3.61ZM35.54 36.79a.92.92 0 0 1-.6-.32.88.88 0 0 1-.22-.67.87.87 0 0 1 .32-.61.88.88 0 0 1 .66-.22c.24.03.46.14.62.32.16.2.24.43.2.64-.02.24-.12.46-.28.62a.89.89 0 0 1-.7.24ZM25.71 22.08a.98.98 0 0 1-.64-.27.93.93 0 0 1-.26-.63c0-.14.02-.24.05-.35.05-.1.1-.21.19-.3a.69.69 0 0 1 .29-.18c.1-.05.24-.08.35-.05.13 0 .24.02.34.08.1.05.22.1.3.21a.7.7 0 0 1 .18.3c.05.1.05.23.05.34a.87.87 0 0 1-.85.85ZM21.82 21.18c0 .24-.1.45-.26.64a.93.93 0 0 1-.64.26.87.87 0 0 1-.62-.26.93.93 0 0 1-.26-.64c0-.24.08-.46.26-.64.16-.16.4-.27.62-.27.1 0 .24.03.34.08.1.05.22.1.3.19.08.08.16.18.18.29.08.1.08.24.08.35ZM29.18 28.5c0 .14-.03.24-.06.35-.05.1-.1.21-.2.3a.69.69 0 0 1-.3.18c-.1.05-.24.05-.35.05a.74.74 0 0 1-.34-.08c-.11-.05-.22-.13-.3-.21a.92.92 0 0 1-.18-.32c-.03-.1-.06-.24-.03-.35 0-.24.1-.45.3-.61.18-.16.4-.24.63-.24.24 0 .45.1.61.3.14.15.22.4.22.63ZM20.94 25.1c.24 0 .46.07.64.26.16.16.27.4.27.61 0 .24-.08.45-.24.64-.16.16-.37.27-.61.3-.14 0-.24-.03-.35-.06a1.1 1.1 0 0 1-.3-.19.69.69 0 0 1-.18-.29c-.05-.1-.05-.24-.05-.35 0-.1.03-.24.05-.34.06-.1.1-.22.19-.3a.69.69 0 0 1 .3-.18c.05-.08.18-.1.28-.1ZM33.07 34.31a1.1 1.1 0 0 1-.51-.13 1 1 0 0 1-.35-.4.9.9 0 0 1-.05-.54c.03-.18.1-.34.24-.48.13-.13.3-.2.45-.26a.92.92 0 0 1 .94.37c.1.16.16.32.16.5 0 .25-.08.49-.27.65a.8.8 0 0 1-.61.29ZM14.5 33.48c0 .1-.03.24-.08.35-.05.1-.1.19-.21.27a1.1 1.1 0 0 1-.3.18c-.1.03-.21.05-.34.05a1.02 1.02 0 0 1-.62-.29.95.95 0 0 1-.24-.64c0-.13.03-.24.08-.34.06-.11.14-.22.22-.3a.92.92 0 0 1 .32-.18c.1-.03.24-.06.34-.06.11 0 .24.06.35.11.1.05.19.13.27.21.08.08.13.19.16.3.05.1.08.24.05.34ZM13.6 14.65a.8.8 0 0 1-.62-.3.9.9 0 0 1-.24-.63c0-.13.03-.24.05-.35.06-.1.11-.21.19-.29a.69.69 0 0 1 .3-.19c.1-.05.23-.05.34-.05.1 0 .24.03.35.08.1.05.2.13.29.21.08.08.13.19.19.32.02.1.05.24.05.35a.8.8 0 0 1-.3.61.84.84 0 0 1-.6.24ZM16.1 30.07c.1 0 .23.03.34.08.1.06.21.1.3.19.07.08.13.19.18.3.05.1.05.2.05.34a.8.8 0 0 1-.29.61.9.9 0 0 1-1.25-.03.92.92 0 0 1-.27-.6c0-.14.03-.25.08-.35.06-.11.1-.22.22-.3a.92.92 0 0 1 .31-.18.41.41 0 0 1 .32-.06ZM30.7 30.07c.13 0 .24 0 .34.06.11.05.22.1.32.18.08.08.16.19.22.3.05.1.08.23.05.34a.8.8 0 0 1-.3.61.9.9 0 0 1-.63.24.87.87 0 0 1-.64-.26.93.93 0 0 1-.27-.64c0-.1.03-.24.05-.35.06-.1.11-.21.2-.3a.69.69 0 0 1 .28-.18c.14.03.27 0 .38 0ZM8.72 9.7a.95.95 0 0 1-.64-.24 1.02 1.02 0 0 1-.3-.62c0-.13.03-.24.09-.34.05-.1.1-.22.2-.3a.69.69 0 0 1 .3-.18c.1-.06.24-.06.35-.06.1 0 .24.03.34.06.11.02.22.1.3.18.08.08.16.2.18.3.06.1.06.21.06.34 0 .11-.03.24-.06.35-.05.1-.1.21-.18.3a.69.69 0 0 1-.3.18c-.1 0-.2.03-.34.03ZM8.72 37.48c.1 0 .24 0 .35.05.1.05.2.1.29.19.08.08.16.18.21.29.05.1.08.21.08.35 0 .24-.1.45-.27.6a.92.92 0 0 1-.6.28.95.95 0 0 1-.65-.24 1.02 1.02 0 0 1-.29-.62c0-.1.03-.24.05-.34.06-.11.11-.22.19-.3a.7.7 0 0 1 .3-.18c.1-.06.2-.08.34-.08ZM23.4 24.53c-.11 0-.25 0-.35-.05a.69.69 0 0 1-.3-.19 1.18 1.18 0 0 1-.2-.29.74.74 0 0 1-.09-.35c0-.1.03-.24.05-.34.06-.1.11-.22.2-.3.07-.08.18-.16.28-.2.11-.06.22-.09.35-.09.13 0 .24 0 .35.05.1.06.2.11.32.2.08.07.16.18.2.28.06.11.09.24.09.35 0 .1-.03.24-.05.35-.06.1-.11.21-.2.29a.69.69 0 0 1-.28.19.67.67 0 0 1-.38.1ZM16.04 17.1c-.1 0-.24-.03-.35-.05-.1-.06-.2-.1-.29-.19a.69.69 0 0 1-.18-.3c-.06-.1-.06-.23-.06-.34 0-.13.03-.24.08-.34.06-.11.1-.22.22-.3a.69.69 0 0 1 .29-.18c.1-.06.24-.06.34-.06.11 0 .24.03.35.08.1.06.21.1.3.22.07.08.13.18.18.29.05.1.05.24.05.35 0 .1-.02.23-.05.34-.05.1-.1.21-.21.3-.08.07-.19.13-.3.18-.16 0-.26.03-.37 0Z" fill="#fff"/></svg>