<svg width="156" height="40" fill="none" xmlns="http://www.w3.org/2000/svg"><path d="M43.2 22.5c-.2-2.37-2.02-4.53-4.53-4.53-2.52 0-4.3 2.16-4.54 4.53h9.07Zm1.03.45c-.01.28-.24.5-.52.5h-9.58c.24 2.37 2.02 4.54 4.54 4.54 1.72 0 2.99-.65 3.95-2.03a.5.5 0 0 1 .41-.24c.26 0 .47.2.48.45v.03c0 .08-.03.17-.08.24-.96 1.67-2.89 2.5-4.76 2.5-3.22 0-5.53-2.9-5.53-5.97s2.3-5.96 5.53-5.96c3.23 0 5.54 2.86 5.56 5.94ZM55.87 17.24c.26 0 .47.22.48.48 0 .25-.2.46-.45.47h-2.6v10.1c0 .26-.21.47-.48.47a.49.49 0 0 1-.47-.47v-10.1h-2.47a.46.46 0 0 1-.48-.44v-.03c0-.26.21-.47.48-.47h2.47v-3.69c0-.25.19-.46.43-.5.26-.04.5.15.53.4v3.79h2.56ZM71.54 22.13v6.1c0 .27-.21.48-.47.48a.46.46 0 0 1-.47-.45v-6.14c0-2.06-1.17-4.11-3.47-4.11-2.95 0-4.22 2.57-4.05 5.21l.03.42v4.58c0 .25-.18.47-.43.5a.47.47 0 0 1-.53-.4V8.15c0-.26.22-.47.48-.47s.47.22.47.48V19.5a4.62 4.62 0 0 1 4.02-2.47c2.82 0 4.42 2.47 4.42 5.09ZM87.71 22.5c-.2-2.37-2.02-4.53-4.53-4.53-2.52 0-4.3 2.16-4.54 4.53h9.07Zm1.04.45c-.01.28-.24.5-.52.5h-9.58c.24 2.37 2.02 4.54 4.53 4.54 1.72 0 3-.65 3.95-2.03.1-.15.25-.23.42-.24.25 0 .47.2.47.45v.03c0 .08-.02.17-.07.24-.97 1.67-2.9 2.5-4.77 2.5-3.22 0-5.53-2.9-5.53-5.97s2.3-5.96 5.53-5.96c3.21 0 5.55 2.86 5.57 5.94ZM100.52 17.7c.02.26-.18.5-.45.51-2.81.42-4.09 2.72-4.09 5.39v4.58c0 .25-.18.47-.43.5a.47.47 0 0 1-.53-.4V17.77c0-.25.18-.47.43-.5.25-.05.49.14.53.4v2.19c.79-1.34 2.37-2.62 4.01-2.62.26 0 .53.18.53.45ZM115.24 22.5c-.2-2.37-2.02-4.53-4.54-4.53-2.5 0-4.29 2.16-4.53 4.53h9.07Zm1.03.45c-.01.28-.24.5-.52.5h-9.58c.24 2.37 2.02 4.54 4.53 4.54 1.72 0 3-.65 3.95-2.03a.5.5 0 0 1 .42-.24c.25 0 .47.2.47.45v.03c0 .08-.02.17-.07.24-.97 1.67-2.9 2.5-4.77 2.5-3.22 0-5.53-2.9-5.53-5.97s2.3-5.96 5.53-5.96c3.24 0 5.55 2.86 5.57 5.94ZM131.75 17.8v10.5c-.01.26-.22.46-.48.47a.46.46 0 0 1-.47-.45V26.3c-.8 1.57-2.2 2.72-3.99 2.72-2.84 0-4.42-2.47-4.42-5.09V17.8c0-.27.22-.48.48-.48s.46.22.47.48v6.13c0 2.07 1.17 4.12 3.47 4.12 3.22 0 3.98-3.02 3.98-6.36v-3.91a.48.48 0 0 1 .65-.44c.19.08.3.26.3.46ZM156 22.08v6.14c0 .26-.22.47-.48.47a.46.46 0 0 1-.47-.45v-6.16c0-2.07-1.17-4.09-3.47-4.09-2.89 0-3.98 3.1-3.98 5.49v4.74c0 .26-.22.47-.47.47a.46.46 0 0 1-.48-.45v-6.16c0-2.07-1.17-4.09-3.46-4.09-2.92 0-4.12 2.3-4.02 5.36 0 .07.03.2 0 .24v4.61c0 .25-.18.47-.43.5a.47.47 0 0 1-.53-.4V17.77c0-.25.18-.47.42-.5.27-.05.5.14.53.4 0 .02.01.04 0 .07v1.74a4.6 4.6 0 0 1 4.02-2.44 4.3 4.3 0 0 1 4.09 3.05c.8-1.8 2.34-3.05 4.32-3.05 2.81 0 4.4 2.44 4.4 5.04ZM0 20.36 11.99.46v14.46L0 20.36Z" fill="#fff"/><path d="M11.99 27.46 0 20.36l11.99-5.44v12.54Z" fill="#E0E0E0"/><path d="m23.99 20.36-12-5.44V.46l12 19.9Z" fill="#E1E1E1"/><path d="M11.99 27.46V14.92l12 5.44-12 7.1Z" fill="#CCC"/><path d="M11.99 39.54 0 22.64l11.99 7.08v9.82Z" fill="#fff"/><path d="M11.99 39.54v-9.82l12-7.07-12 16.9Z" fill="#D4D4D4"/></svg>