<svg width="155" height="50" fill="none" xmlns="http://www.w3.org/2000/svg"><path d="m3.6 12.13 3.99 3.97a9.13 9.13 0 0 0-1.88 7.77 8.83 8.83 0 0 0 2.92 4.97 9.2 9.2 0 0 0 11.94.21c1.44 1.46 2.9 2.9 4.36 4.39 1.51-1.53 2.97-3 4.44-4.43 4.5 3.45 9.63 2.34 12.53-.63a9.15 9.15 0 0 0 .6-12.21l3.95-3.97C51.56 20 52 33.5 42.48 42.9c-9.12 9.03-24.28 9.47-33.96.9C-1.58 34.92-2 20.96 3.6 12.14Z" fill="#fff"/><path d="M5.27 9.71C14.9-3.24 35.1-3.26 44.8 9.81L25.07 29.54A7958 7958 0 0 0 5.27 9.7Zm19.78 15.23L40.39 9.71C32.04.94 17.43 1.36 9.72 9.62l15.33 15.32ZM40.5 18.1a6.5 6.5 0 0 1-.64 8.56c-2.32 2.25-6.06 2.46-8.43.51 3.02-3.04 6.06-6.06 9.08-9.08ZM18.57 27.17a6.46 6.46 0 0 1-8.47-.6c-2.3-2.32-2.55-6.06-.6-8.45l9.07 9.05ZM82.67 17.65l-3.6 3.07a8.4 8.4 0 0 0-4.06-2.07 5.74 5.74 0 0 0-6.83 4.88 7.72 7.72 0 0 0 .75 5.03c1.78 3.32 5.66 3.6 8.52 2.16.16-.07.3-.32.3-.48.04-.7.02-1.4.02-2.16h-4.15v-4.35h9.07c.03.2.07.42.07.65 0 2.84.03 5.67-.02 8.53 0 .34-.16.83-.44 1-3.88 2.62-10.59 3.45-14.98.55a9.93 9.93 0 0 1-4.55-7.45c-.44-3.72.21-7.15 2.81-10.03a9.77 9.77 0 0 1 5.97-3.09c3.9-.58 7.45.26 10.42 2.97.19.17.35.35.51.54.07.02.12.11.19.25ZM111.22 36.3c-4.1 0-7.05-2.07-7.91-5.8-1.35-5.88 2.76-10.57 9.05-9.88 3.35.38 5.8 2.07 6.73 5.41 1.54 5.71-2.2 10.43-7.87 10.26Zm.03-11.38c-1.93 0-3.3 1.42-3.3 3.46-.02 2.04 1.44 3.64 3.3 3.64 1.86 0 3.32-1.6 3.32-3.64-.05-2.02-1.4-3.46-3.32-3.46ZM90.7 20.93v1.3c1.2-.54 2.4-1.3 3.67-1.54 3.25-.6 6.01.96 6.2 4.55.18 3.56.04 7.13.04 10.82-1.34 0-2.78.03-4.24-.04-.17 0-.45-.5-.45-.77-.04-2.53-.02-5.06-.06-7.6-.05-2.03-.7-2.7-2.37-2.7-1.63 0-2.72 1.08-2.77 2.85-.04 2.5 0 4.99-.02 7.5 0 .2-.02.41-.05.74-1.46 0-2.92.02-4.38-.05-.17 0-.42-.5-.44-.79-.05-2.02-.03-4.01-.03-6.03v-8.24h4.9ZM152.41 25.75c-.95-.46-1.81-.97-2.74-1.3-.6-.2-1.48-.37-1.76.42-.3.86.65.98 1.16 1.23 1.02.47 2.11.8 3.13 1.26 2.04.95 2.93 2.34 2.79 4.27-.17 2.2-1.3 3.71-3.49 4.3-3.2.85-6.2.36-8.91-1.86l2.09-3c1.32.49 2.55.98 3.78 1.42.19.07.47.11.63.02.4-.2.77-.49 1.14-.74-.3-.3-.56-.7-.93-.86-.95-.42-1.95-.68-2.9-1.1-2.46-1.06-3.46-2.73-3.16-5.24.19-1.62 1.16-2.72 2.58-3.41 2.6-1.26 6.45-.65 8.7 1.34a60.71 60.71 0 0 1-2.11 3.25ZM120.72 34.09c.77-1.12 1.51-2.14 2.3-3.25 1.09.93 2.23 1.6 3.64 1.7.3.02.63.04.89-.08.3-.14.72-.4.74-.65.05-.23-.3-.65-.58-.76-.86-.37-1.77-.65-2.65-1-1.58-.6-3-1.46-3.55-3.18-.9-2.79.65-5.43 3.6-6.1 2.74-.63 5.24 0 7.57 1.69l-2.25 3.36c-.56-.34-1.05-.67-1.56-.95a3.7 3.7 0 0 0-1.19-.46c-.65-.1-1.5-.33-1.74.5-.2.75.63.94 1.17 1.15.97.41 2 .76 2.94 1.18 2.42 1.07 3.18 2.37 2.93 4.88a4.54 4.54 0 0 1-3.72 3.9c-3.06.7-5.94.23-8.54-1.93ZM140.31 36h-4.66V20.94h4.66v15.04ZM138 13.38c1.76 0 3.03 1.18 3.03 2.83-.02 1.6-1.27 2.81-2.97 2.84-1.74.02-3.04-1.17-3.04-2.81-.02-1.7 1.18-2.86 2.97-2.86Z" fill="#fff"/></svg>