<svg width="157" height="34" fill="none" xmlns="http://www.w3.org/2000/svg"><path d="M27.8 10.28a2.31 2.31 0 0 0-2.32 0l-5.3 3.23-3.6 2.1-5.3 3.22c-.69.41-1.57.41-2.32 0L4.73 16.3A2.41 2.41 0 0 1 3.6 14.3V9.33c0-.83.41-1.6 1.14-2.02l4.15-2.44a2.31 2.31 0 0 1 2.32 0l4.15 2.44c.68.41 1.15 1.2 1.15 2.02v3.22l3.61-2.17V7.16a2.3 2.3 0 0 0-1.15-2.03L11.28.53a2.31 2.31 0 0 0-2.32 0l-7.81 4.6A2.26 2.26 0 0 0 0 7.16v9.27c0 .83.41 1.62 1.15 2.03l7.8 4.61c.69.42 1.57.42 2.33 0l5.3-3.15 3.6-2.17 5.3-3.15a2.31 2.31 0 0 1 2.32 0l4.15 2.44c.68.42 1.14 1.2 1.14 2.03v4.95a2.3 2.3 0 0 1-1.14 2.03l-4.15 2.51c-.69.42-1.56.42-2.32 0l-4.15-2.44a2.41 2.41 0 0 1-1.15-2.02v-3.22l-3.6 2.17v3.22c0 .83.4 1.61 1.14 2.03l7.8 4.6c.7.42 1.57.42 2.33 0l7.8-4.6a2.41 2.41 0 0 0 1.15-2.03V17a2.3 2.3 0 0 0-1.14-2.03l-7.86-4.69ZM51.2 30.25v-7.71c.83 1.05 2.35 1.63 4.08 1.63 4.44 0 7.47-3.2 7.47-8.05 0-4.86-2.76-8.06-7.1-8.06-2 0-3.54.74-4.45 1.96V8.3h-4.27v21.91h4.27v.03Zm3.57-9.79c-2.3 0-3.81-1.73-3.81-4.34 0-2.64 1.51-4.37 3.8-4.37 2.25 0 3.79 1.73 3.79 4.37-.03 2.6-1.56 4.34-3.78 4.34ZM72.44 24.17c4.75 0 8.17-3.42 8.17-8.05 0-4.64-3.42-8.06-8.17-8.06-4.76 0-8.18 3.42-8.18 8.06 0 4.63 3.42 8.05 8.18 8.05Zm0-3.7c-2.3 0-3.88-1.77-3.88-4.35 0-2.61 1.56-4.37 3.88-4.37 2.29 0 3.88 1.76 3.88 4.37 0 2.58-1.59 4.34-3.88 4.34ZM87.44 23.93V1.55h-4.27v22.38h4.27ZM100.28 8.33 97.06 18.4 93.81 8.33h-4.36l5.6 15.47-2.26 6.45h4.07l2.18-6.37 5.61-15.55h-4.37ZM116.68 9.87a5.39 5.39 0 0 0-4.27-1.8c-4.52 0-7.25 3.19-7.25 8.05 0 4.85 2.73 8.05 7.32 8.05 1.8 0 3.44-.68 4.25-1.83v2.05c0 1.46-.95 2.47-2.25 2.47h-7.15v3.36h7.81c3.5 0 5.83-2.14 5.83-5.39V8.31h-4.3v1.56Zm-3.54 10.6c-2.27 0-3.78-1.72-3.78-4.35 0-2.64 1.51-4.37 3.78-4.37 2.3 0 3.8 1.73 3.8 4.37 0 2.63-1.5 4.34-3.8 4.34ZM131.74 24.17c4.76 0 8.17-3.42 8.17-8.05 0-4.64-3.41-8.06-8.17-8.06s-8.18 3.42-8.18 8.06c0 4.63 3.42 8.05 8.18 8.05Zm0-3.7c-2.3 0-3.88-1.77-3.88-4.35 0-2.61 1.56-4.37 3.88-4.37 2.3 0 3.88 1.76 3.88 4.37-.03 2.58-1.59 4.34-3.88 4.34ZM146.53 23.93v-8.55c0-2 1.32-3.46 3.2-3.46 1.78 0 2.97 1.37 2.97 3.24v8.77h4.3V14.2c0-3.59-2.27-6.12-5.78-6.12-2.13 0-3.84.9-4.72 2.41V8.33h-4.27v15.6h4.3Z" fill="#fff"/></svg>