<svg width="156" height="30" fill="none" xmlns="http://www.w3.org/2000/svg"><path d="M52.84 16.76h5.88a1.5 1.5 0 0 1 0 3.01h-7.1a.45.45 0 0 0-.3.12l-2.13 1.84c-.33.29-.13.82.3.82h8.87l.02-.01.34.01a4.27 4.27 0 0 0 .35-8.55c0-.02 0-.02-.02-.02h-6.32a1.5 1.5 0 0 1 0-3h7.07c.12 0 .23-.05.32-.12L62.1 9a.47.47 0 0 0-.31-.81H52.73a4.27 4.27 0 0 0 0 8.56h.1ZM87.07 8.2c-.26 0-.47.2-.47.46V22.1c0 .26.21.47.47.47h10.76c.13 0 .25-.06.34-.15l1.35-1.45a.46.46 0 0 0-.35-.78h-9.39a.46.46 0 0 1-.46-.47V8.66c0-.25-.2-.47-.46-.47h-1.8Z" fill="#fff"/><path fill-rule="evenodd" clip-rule="evenodd" d="M69.84 8.2s-.01 0 0 0a2.67 2.67 0 0 0-2.55 2.54V19.88c0 1.43 1.13 2.6 2.55 2.66h9.76a2.67 2.67 0 0 0 2.54-2.66V10.74a2.66 2.66 0 0 0-2.53-2.54h-9.77Zm1.81 2.54c-.86.04-1.55.74-1.59 1.6V18.1c0 .9.7 1.64 1.6 1.67h6.11a1.67 1.67 0 0 0 1.6-1.67v-5.75a1.67 1.67 0 0 0-1.6-1.6h-6.12ZM115.16 22.09c0 .25.2.47.46.47h1.83c.25 0 .46-.2.46-.47V10.86c0-1.43-1.12-2.6-2.52-2.65H105.91a2.64 2.64 0 0 0-2.63 2.66V22.1c0 .26.2.48.46.48h1.83c.25 0 .46-.21.46-.47v-4.63c0-.26.2-.47.46-.47h8.23c.25 0 .46.2.46.47v4.62h-.02ZM106 14.44v-2.3c0-.9.72-1.63 1.6-1.63h5.95c.88 0 1.6.72 1.6 1.62v2.31c0 .26-.2.47-.46.47h-8.23a.46.46 0 0 1-.46-.47ZM153.68 22.56a.46.46 0 0 1-.47-.47v-4.63c0-.25-.2-.47-.46-.47h-8.31c-.26 0-.47.2-.47.47v4.63c0 .25-.2.47-.46.47h-1.84a.46.46 0 0 1-.46-.47V10.86a2.66 2.66 0 0 1 2.66-2.66h9.59a2.67 2.67 0 0 1 2.54 2.66V22.08c0 .26-.2.47-.46.47h-1.86Zm-9.72-10.43v2.31c0 .26.21.47.47.47h8.31c.26 0 .47-.2.47-.47v-2.3c0-.9-.73-1.63-1.62-1.63h-6c-.9 0-1.63.72-1.63 1.62Z" fill="#fff"/><path d="M124.77 8.2c.14 0 .27.05.35.16l8.18 9.75c.28.33.82.13.82-.3V8.66c0-.25.2-.47.46-.47h1.82c.26 0 .47.2.47.47V22.1c0 .26-.21.47-.47.47h-2.26l-.02-.01v-.02l-8.33-9.68c-.28-.33-.81-.13-.81.3v8.95c0 .25-.2.47-.46.47h-1.84a.46.46 0 0 1-.47-.47V8.66c0-.25.21-.47.47-.47h2.1ZM6.04 23.05c.23-.23.53-.36.85-.36h29.69a.6.6 0 0 1 .42 1.04l-5.86 5.86a1.2 1.2 0 0 1-.86.35H.61a.6.6 0 0 1-.43-1.03l5.86-5.86ZM6.04 1.16c.23-.23.53-.36.85-.36h29.69A.6.6 0 0 1 37 1.84l-5.86 5.85a1.2 1.2 0 0 1-.86.36H.61a.6.6 0 0 1-.43-1.03l5.86-5.86ZM31.14 12.03a1.2 1.2 0 0 0-.86-.35H.61a.6.6 0 0 0-.43 1.03l5.87 5.86c.22.23.53.35.85.35h29.68a.6.6 0 0 0 .43-1.03l-5.87-5.86Z" fill="#fff"/></svg>