<svg width="156" height="31" fill="none" xmlns="http://www.w3.org/2000/svg"><path d="M47.43 19.64a5.01 5.01 0 0 0 1.9 3.65 7.1 7.1 0 0 0 4.37 1.3c1.6 0 2.77-.28 3.8-1.01a3.16 3.16 0 0 0 1.46-2.78c0-.87-.3-1.6-.73-2.04a6.13 6.13 0 0 0-2.2-1.17c-.87-.29-2.18-.58-3.79-.87-1.6-.3-3.06-.73-4.23-1.17a6.22 6.22 0 0 1-4.09-5.98c0-1.46.44-2.77 1.17-3.94A7.14 7.14 0 0 1 48.3 3a11.75 11.75 0 0 1 4.82-1.02c1.9 0 3.5.3 4.96 1.02a8 8 0 0 1 3.36 2.77 6.52 6.52 0 0 1 1.31 4.09h-4.09a4.74 4.74 0 0 0-1.75-3.21 6.5 6.5 0 0 0-3.8-1.17c-1.45 0-2.62.3-3.64 1.02-.88.59-1.31 1.6-1.31 2.78 0 .87.29 1.46.73 1.9.58.43 1.16.87 2.04 1.16.88.3 2.19.44 3.8.73 1.6.3 3.06.73 4.23 1.17a6.22 6.22 0 0 1 4.08 5.98c0 1.46-.44 2.92-1.17 4.09a8 8 0 0 1-3.35 2.77 10.79 10.79 0 0 1-4.96 1.02c-2.05 0-3.8-.3-5.4-1.17a8.42 8.42 0 0 1-3.65-3.06 7.86 7.86 0 0 1-1.31-4.52l4.23.29Zm20.14-6.86h-3.21v-3.5h3.2V4.02h4.1v5.26h4.52v3.5h-4.53v9.78c0 .73.15 1.3.44 1.6.3.3.73.44 1.46.44h3.06v3.5h-3.8c-1.74 0-3.06-.44-3.93-1.31-.88-.88-1.17-2.05-1.17-3.8V12.78h-.14Zm29.04-3.5v18.68h-3.5l-.44-2.92a7.26 7.26 0 0 1-6.13 3.06A9.06 9.06 0 0 1 82 26.93a8.9 8.9 0 0 1-3.2-3.35 11.45 11.45 0 0 1 0-10.07 7.94 7.94 0 0 1 3.2-3.36 9.48 9.48 0 0 1 8.17-.44 7.26 7.26 0 0 1 2.49 2.2l.43-2.78h3.5v.15Zm-5.4 13.86a6.36 6.36 0 0 0 1.46-4.38c0-1.9-.44-3.35-1.46-4.52a5 5 0 0 0-3.94-1.75 5 5 0 0 0-3.94 1.75c-1.03 1.17-1.46 2.62-1.46 4.52 0 1.9.43 3.36 1.46 4.53a5 5 0 0 0 3.94 1.75 5.65 5.65 0 0 0 3.94-1.9Zm23.78 3.21a9.32 9.32 0 0 1-5.83 1.9c-1.9 0-3.5-.44-4.97-1.17a8.26 8.26 0 0 1-3.35-3.36 10.82 10.82 0 0 1-1.17-4.96c0-1.9.44-3.5 1.17-4.96a8.26 8.26 0 0 1 3.35-3.36 10.83 10.83 0 0 1 4.97-1.16c2.33 0 4.23.58 5.83 1.9a7.71 7.71 0 0 1 2.78 4.95h-4.09a4.14 4.14 0 0 0-1.6-2.48 4.7 4.7 0 0 0-2.92-1.02c-1.6 0-2.92.59-3.8 1.75a6.36 6.36 0 0 0-1.46 4.38c0 1.9.44 3.36 1.46 4.53a4.7 4.7 0 0 0 3.8 1.75 4.58 4.58 0 0 0 4.67-3.65h4.08a9.06 9.06 0 0 1-2.92 4.96Zm5.99-23.93h3.94v15.9l8.6-9.04h4.53l-7 7.44 7.44 11.09h-4.67l-5.55-8.32-3.35 3.5v4.82h-3.94V2.4Zm22.18 19.4c0 1.03.58 1.76 1.31 2.34.88.58 1.9.88 3.36.88 1.16 0 2.19-.15 2.92-.73.73-.44 1.16-1.02 1.16-1.75 0-.59-.14-1.17-.43-1.46-.3-.3-.73-.59-1.32-.73-.58-.15-1.46-.3-2.62-.44-1.6-.15-3.07-.44-4.09-.73a6.1 6.1 0 0 1-2.63-1.6 4.4 4.4 0 0 1-1.02-2.92c0-1.17.3-2.2 1.02-3.07.59-.87 1.6-1.6 2.63-2.04 1.17-.44 2.48-.73 3.94-.73 2.34 0 4.23.58 5.84 1.6a5.66 5.66 0 0 1 2.48 4.38h-3.94a2.84 2.84 0 0 0-1.32-2.04 4.63 4.63 0 0 0-2.91-.88c-1.17 0-2.05.15-2.78.59a1.9 1.9 0 0 0-1.02 1.75c0 .58.15 1.02.58 1.31.3.3.74.44 1.32.58a24 24 0 0 0 2.63.44c1.6.15 2.91.44 4.08.73 1.17.3 2.05.88 2.63 1.6a4.81 4.81 0 0 1 1.02 3.07c0 1.17-.3 2.2-1.02 3.07-.73.87-1.6 1.6-2.77 2.04-1.17.44-2.49.73-4.09.73-2.48 0-4.52-.58-6.13-1.75a5.8 5.8 0 0 1-2.48-4.67l3.65.44ZM20.58 20.8l6.13 9.34h-4.67l-7.3-11.09-7.3 11.1H2.77L8.9 20.8H0v-3.5h29.19v3.5h-8.61ZM29.48 10.3v3.5H.28v-3.65h8.76L2.92.95h4.67l7.3 11.24L22.31.96H27l-6.12 9.2h8.6v.14Z" fill="#fff"/></svg>