<svg width="156" height="60" fill="none" xmlns="http://www.w3.org/2000/svg"><g clip-path="url(#a)"><mask id="b" style="mask-type:luminance" maskUnits="userSpaceOnUse" x="0" y="0" width="156" height="60"><path d="M156 0H0v59.43h156V0Z" fill="#fff"/></mask><g mask="url(#b)"><path d="M29.89 59.43a29.71 29.71 0 1 0 0-59.43 29.71 29.71 0 0 0 0 59.43Z" fill="#fff"/><path d="M40.04 16.59h-20.3a4.85 4.85 0 0 0-4.21 7.27l12.52 21.71a2.13 2.13 0 0 0 3.68 0l12.53-21.7a4.86 4.86 0 0 0-4.22-7.29Zm-12 22.47-2.73-5.28-6.58-11.77c-.43-.75.1-1.72 1.01-1.72h8.3v18.77Zm13-17.05-6.57 11.77-2.73 5.28V20.3h8.3c.9 0 1.44.97 1 1.72Z" fill="#000"/><path d="M78.34 46.13h6.65V22.92h9.2V16.6H69.13v6.32h9.2v23.2ZM110.19 46.63a15.3 15.3 0 0 0 15.26-15.27A15.3 15.3 0 0 0 110.2 16.1a15.28 15.28 0 0 0 0 30.53Zm0-6.4c-4.83 0-8.61-4.08-8.61-8.87 0-4.78 3.78-8.86 8.6-8.86 4.8 0 8.58 4.08 8.58 8.86 0 4.79-3.79 8.86-8.57 8.86ZM155.83 46.13V16.6h-6.66V34.8L134.82 16.6h-5.7v29.53h6.62V27.87l14.39 18.26h5.7Z" fill="#fff"/></g></g><defs><clipPath id="a"><path fill="#fff" d="M0 0h156v59.43H0z"/></clipPath></defs></svg>