<svg width="156" height="49" fill="none" xmlns="http://www.w3.org/2000/svg"><path fill-rule="evenodd" clip-rule="evenodd" d="m0 .1 19.4 48.18 27.01-32.5-9.55-8.98L0 .1Zm6.87 3.85 26.55 4.82-10.3 8.48L6.87 3.95ZM5.02 5.74l16.94 13.88-2.65 21.62L5.02 5.74Zm31.2 4 5.63 5.29-15.41 2.77 9.78-8.05Zm-11.83 11 17.06-3.06-19.57 23.56 2.5-20.5ZM99.28 23.14a6.35 6.35 0 0 0 1.88-4.8c0-7.3-6.55-7.26-6.64-7.26H80.67v22.88h2.28v-20.6h11.49c.34.03 4.41.31 4.41 4.99 0 1.38-.37 2.4-1.15 3.15-1.48 1.41-3.96 1.3-3.96 1.3h-9.06V34h2.28v-8.9h6.7l5.36 8.98h2.66l-5.54-9.27a7.78 7.78 0 0 0 3.14-1.67ZM62.25 33.93h2.28V18.21h-2.28v15.72ZM55.04 13.3h20.43v-2.25H55.04v2.25ZM66.24 33.93h2.28V18.21h-2.28v15.72ZM139.4 33.85h2.31v-8.31h-2.3v8.3Z" fill="#fff"/><path fill-rule="evenodd" clip-rule="evenodd" d="M153.69 11.2v18.38L135.28 8.8v25h2.3V15.57L156 36.36V11.19h-2.31ZM118.77 31.71c-5.2 0-9.41-4.18-9.41-9.3 0-5.1 4.21-9.29 9.4-9.29 5.2 0 9.42 4.19 9.42 9.3 0 5.1-4.22 9.3-9.41 9.3Zm0-20.87c-6.47 0-11.72 5.2-11.72 11.58s5.25 11.57 11.72 11.57c6.46 0 11.72-5.2 11.72-11.57 0-6.38-5.26-11.58-11.72-11.58Z" fill="#fff"/><path fill-rule="evenodd" clip-rule="evenodd" d="M118.77 20.6c-.87 0-1.59.7-1.59 1.56 0 .86.72 1.56 1.59 1.56.86 0 1.59-.7 1.59-1.56 0-.87-.73-1.56-1.6-1.56Z" fill="#fff"/></svg>